<?xml version="1.0" standalone="no"?>
<!DOCTYPE svg PUBLIC "-//W3C//DTD SVG 20010904//EN"
 "http://www.w3.org/TR/2001/REC-SVG-20010904/DTD/svg10.dtd">
<svg version="1.0" xmlns="http://www.w3.org/2000/svg"
 width="500.000000pt" height="500.000000pt" viewBox="0 0 500.000000 500.000000"
 preserveAspectRatio="xMidYMid meet">

<g transform="translate(0.000000,500.000000) scale(0.100000,-0.100000)"
fill="#000000" stroke="none">
<path d="M206 4860 c-52 -26 -82 -55 -114 -110 l-27 -45 -3 -2240 c-2 -1643 0
-2250 8 -2279 18 -60 57 -112 113 -148 l52 -33 2260 0 c2208 0 2261 0 2299 19
47 24 98 75 123 124 17 36 18 127 18 2297 l0 2260 -27 46 c-15 26 -42 59 -59
73 -71 60 102 56 -2353 56 -2218 -1 -2252 -1 -2290 -20z m1234 -1115 l0 -165
-61 0 c-69 0 -120 -23 -154 -68 -19 -25 -20 -48 -26 -387 -5 -336 -7 -364 -27
-419 -33 -90 -64 -137 -137 -204 l-65 -61 73 -73 c43 -43 83 -94 97 -123 52
-112 53 -120 59 -482 6 -325 7 -343 27 -369 38 -51 68 -66 143 -72 l71 -5 0
-158 0 -159 -73 0 c-141 0 -255 46 -353 144 -66 67 -114 155 -133 244 -7 32
-11 174 -11 358 0 234 -3 312 -14 337 -8 20 -63 76 -138 142 -157 139 -161
145 -166 220 -4 80 12 101 158 210 171 128 160 95 160 487 0 404 7 446 99 568
98 130 231 192 429 199 l42 1 0 -165z m2279 155 c190 -22 349 -149 409 -328
13 -38 17 -115 21 -409 6 -345 7 -363 27 -390 11 -15 72 -67 135 -115 63 -48
122 -97 132 -109 13 -16 17 -40 17 -94 0 -40 -3 -80 -6 -88 -3 -8 -65 -67
-139 -131 -99 -87 -137 -126 -149 -156 -13 -34 -16 -89 -16 -348 0 -241 -3
-320 -15 -365 -57 -221 -250 -367 -482 -367 l-73 0 0 160 0 160 55 0 c31 0 70
6 88 14 42 17 83 66 97 114 6 22 10 164 10 343 0 279 2 313 20 372 26 83 75
158 148 224 l57 52 -58 51 c-67 60 -107 116 -139 191 -21 52 -23 70 -28 419
-6 404 -6 404 -72 452 -25 18 -50 24 -105 27 l-73 3 0 157 c0 87 3 161 7 164
9 9 32 9 132 -3z m-931 -296 c150 -31 329 -97 379 -140 l22 -19 -81 -100 c-44
-55 -88 -110 -98 -122 l-18 -23 -63 43 c-117 78 -298 115 -431 88 -71 -15
-154 -72 -181 -125 -26 -49 -33 -132 -17 -182 34 -104 118 -176 320 -271 148
-70 324 -169 397 -224 62 -46 144 -158 173 -235 43 -115 43 -305 2 -429 -69
-205 -238 -349 -487 -416 -66 -18 -108 -22 -240 -22 -175 0 -303 17 -434 60
-97 31 -231 93 -231 107 0 12 119 298 129 308 3 4 29 -11 56 -33 205 -164 478
-213 658 -117 102 55 157 143 157 253 0 81 -25 139 -92 210 -54 58 -74 71
-246 155 -346 169 -463 254 -534 386 -79 146 -80 383 -3 533 68 133 192 231
361 286 136 44 365 57 502 29z"/>
</g>
</svg>
